<svg version="1.1" xmlns="http://www.w3.org/2000/svg" xmlns:xlink="http://www.w3.org/1999/xlink" width="198.70506" height="290.99601" viewBox="0,0,198.70506,290.99601"><g transform="translate(-140.64748,-34.50199)"><g data-paper-data="{&quot;isPaintingLayer&quot;:true}" fill-opacity="0.57647" fill="#ff2b05" fill-rule="nonzero" stroke="#000000" stroke-width="0" stroke-linecap="butt" stroke-linejoin="miter" stroke-miterlimit="4" stroke-dasharray="" stroke-dashoffset="0" style="mix-blend-mode: normal"><path d="M168.6115,314.10357c0,0 -18.05578,-28.749 -19.28287,-32.95617c-1.22709,-4.20717 -5.78486,-28.57371 -5.78486,-32.43028c0,-3.85658 -1.68805,-8.02438 -2.10359,-12.09562c-0.75983,-7.44439 -0.92348,-14.95848 -0.70119,-22.43825c0.17255,-5.80615 0.10614,-11.73535 1.57769,-17.35458c2.67691,-10.22197 8.30643,-19.44348 12.97211,-28.9243c11.77436,-23.9259 26.45694,-46.36719 37.86454,-70.47012c3.08237,-6.51268 6.2587,-13.05627 8.23904,-19.98406c3.98943,-13.95614 7.18726,-42.94821 7.18726,-42.94821c0,0 3.89922,23.12455 8.41434,33.83267c4.48574,10.63845 12.18856,19.61219 18.23107,29.4502c11.46001,18.65841 34.18327,56.09562 34.18327,56.09562l7.01195,21.56175l12.44622,-25.76893c0,0 3.68127,-12.27091 4.38247,-13.32271c0.70119,-1.05179 3.68127,-22.78884 3.68127,-22.78884l2.10359,-1.05179l4.03187,15.25099c0,0 4.48998,13.50668 7.01195,20.15937c5.28506,13.94142 11.64744,27.4564 17.00399,41.37051c1.42769,3.70855 2.75912,7.45459 4.03187,11.21913c1.60991,4.76181 3.40004,9.48305 4.55777,14.3745c1.79884,7.60017 3.68127,22.26295 3.68127,23.13944c0,0.8765 -2.10358,38.56574 -2.10358,38.56574c0,0 -4.20717,14.5498 -5.96016,16.82868c-1.75299,2.27889 -16.82869,32.07969 -16.82869,32.07969l-27.34661,-64.86056l-22.08765,40.66932l-2.45418,-27.87251l-0.8765,-9.46614c0,0 -2.72677,-11.52508 -5.25896,-16.82868c-1.99704,-4.18274 -4.7746,-7.98526 -7.71315,-11.56972c-2.2528,-2.74798 -4.84481,-5.21965 -7.53785,-7.53785c-3.57834,-3.08028 -7.94944,-5.1856 -11.39442,-8.41434c-1.78507,-1.67302 -3.51832,-3.48592 -4.73307,-5.60956c-1.66087,-2.90354 -2.30688,-6.28167 -3.33067,-9.46614c-0.89422,-2.78144 -1.4743,-5.66192 -2.45419,-8.41434c-1.10653,-3.10817 -2.50977,-6.10369 -3.85657,-9.11554c-1.3978,-3.1259 -4.03187,-8.58964 -4.38247,-9.29084c-0.3506,-0.70119 -2.10359,0.8765 -2.10359,0.8765c0,0 -2.14385,7.49708 -4.03187,10.86852c-4.2274,7.54888 -11.52595,13.02694 -16.03167,20.41308c-4.54463,7.44992 -8.19989,15.50352 -10.90804,23.79935c-2.56497,7.85725 -3.96656,20.82444 -4.9582,24.29518c-0.99164,3.47074 -4.46238,21.81607 -4.46238,24.79099v12.3955c0,1.98328 -0.99164,11.89968 -0.99164,11.89968z"/></g></g></svg>